<?xml version="1.0" encoding="UTF-8"?>
<svg id="Layer_1" data-name="Layer 1" xmlns="http://www.w3.org/2000/svg" viewBox="0 0 214.964 35.629">
  <defs>
    <style>
      .apeirobyte {
        fill: red;
        stroke-width: 0px;
      }
    </style>
  </defs>
  <polygon id="E2" class="apeirobyte" points="208.283 16.887 201.482 8.503 213.1 7.723 212.898 4.729 195.506 5.898 204.471 16.949 191.288 34.347 210.4 34.347 210.4 31.347 197.325 31.347 208.283 16.887"/>
  <polygon id="T" class="apeirobyte" points="194.574 14.585 188.834 14.585 191.738 .329 188.677 .329 185.773 14.585 179.422 14.585 179.422 17.585 185.162 17.585 181.717 34.494 184.779 34.494 188.223 17.585 194.574 17.585 194.574 14.585"/>
  <polygon id="Y" class="apeirobyte" points="159.842 5.244 157.447 7.053 166.389 18.888 172.525 11.648 171.693 26.805 161.175 30.89 162.261 33.687 174.582 28.9 176.01 2.896 166.523 14.089 159.842 5.244"/>
  <path id="B" class="apeirobyte" d="M149.035,15.251l-.467-8.049-8.981-5.151-2.95,32.296h21.22l-4.603-20.105-4.219,1.01ZM142.149,6.979l3.519,2.019.403,6.964-4.849,1.16.927-10.143ZM139.924,31.347l1.011-11.071,10.071-2.411,3.087,13.482h-14.169Z"/>
  <path id="O" class="apeirobyte" d="M126.111,34.102l10.314-31.476-22.858,11.933,12.544,19.543ZM125.226,27.168l-7.362-11.469,13.415-7.003-6.053,18.472Z"/>
  <polygon id="R" class="apeirobyte" points="113.635 7.425 94.649 2.607 93.301 34.417 95.107 34.494 96.301 34.494 97.491 6.423 108.152 9.128 98.941 19.639 111.303 34.494 115.207 34.494 102.887 19.69 113.635 7.425"/>
  <polygon id="I" class="apeirobyte" points="89.026 2.685 74.485 3.35 74.622 6.346 79.987 6.1 80.32 31.271 73.848 31.271 73.848 34.271 89.095 34.271 89.095 31.271 83.32 31.271 82.986 5.963 89.163 5.681 89.026 2.685"/>
  <polygon id="E" class="apeirobyte" points="71.256 4.691 53.864 5.859 62.828 16.91 49.645 34.309 68.758 34.309 68.758 31.309 55.683 31.309 66.641 16.848 59.841 8.465 71.457 7.685 71.256 4.691"/>
  <path id="P" class="apeirobyte" d="M30.32,3.133v31.361h3v-15.242l14.087-.627,4.852-12.545-21.938-2.946ZM45.315,15.714l-11.995.534V6.563l14.769,1.983-2.773,7.168Z"/>
  <path id="A" class="apeirobyte" d="M10.269,19.927l-8.123-3.58-1.211,2.746,7.828,3.45-6.879,11.95h3.461l6.179-10.734,12.444,5.485,1.036,5.249h3.058L21.376.631l-11.107,19.296ZM13.03,21.144l6.954-12.079,3.275,16.588-10.229-4.508Z"/>
</svg>